<svg width="98" height="98" viewBox="0 0 98 98" fill="none" xmlns="http://www.w3.org/2000/svg">
<circle cx="49" cy="49" r="49" fill="black"/>
<path fill-rule="evenodd" clip-rule="evenodd" d="M27 67.0827C26.4477 67.0827 26 67.5304 26 68.0827V79C26 79.5523 26.4477 80 27 80H54.3193C58.7451 80 62.5826 79.2836 65.8319 77.8507C69.0812 76.3902 71.5882 74.3511 73.3529 71.7333C75.1176 69.088 76 65.9742 76 62.392C76 58.7822 75.0616 55.7373 73.1849 53.2573C71.7182 51.3192 69.7811 49.8018 67.3735 48.7052C66.5802 48.3438 66.4559 47.1556 67.1413 46.6169C68.5674 45.4959 69.7556 44.1272 70.7059 42.5107C72.0504 40.196 72.7227 37.5644 72.7227 34.616C72.7227 29.3253 70.7479 25.2333 66.7983 22.34C62.8487 19.4467 57.2465 18 49.9916 18H27C26.4477 18 26 18.4477 26 19V29.916C26 30.4683 26.4477 30.916 27 30.916L59.2109 30.916C59.7632 30.916 60.2109 31.3637 60.2109 31.916V39.0798C60.2109 39.4791 59.9734 39.8401 59.6068 39.9981L40.8832 48.0698C40.0777 48.417 40.0777 49.5591 40.8832 49.9064L59.6068 57.978C59.9734 58.1361 60.2109 58.4971 60.2109 58.8963V66.0827C60.2109 66.635 59.7632 67.0827 59.2109 67.0827H27ZM26 59.1336C26 59.6859 26.4477 60.1336 27 60.1336L45.055 60.1336C46.1361 60.1336 46.4482 58.6562 45.4593 58.219L31.2487 51.9363C30.8866 51.7762 30.653 51.4176 30.653 51.0217L30.653 46.9542C30.653 46.5584 30.8864 46.1999 31.2483 46.0397L45.3932 39.7795C46.3816 39.342 46.0694 37.8651 44.9885 37.8651H27C26.4477 37.8651 26 38.3128 26 38.8651V59.1336Z" fill="#DDFC53"/>
</svg>
