<svg width="194" height="74" viewBox="0 0 194 74" fill="none" xmlns="http://www.w3.org/2000/svg">
<path fill-rule="evenodd" clip-rule="evenodd" d="M1 58.5827C0.447716 58.5827 0 59.0304 0 59.5827V73C0 73.5523 0.447716 74 1 74H33.9832C39.2941 74 43.8992 73.1449 47.7983 71.4347C51.6975 69.6916 54.7059 67.2578 56.8235 64.1333C58.9412 60.976 60 57.2596 60 52.984C60 48.6756 58.874 45.0413 56.6218 42.0813C54.7804 39.661 52.3208 37.7904 49.2433 36.4696C48.4405 36.125 48.3177 34.9428 49.0193 34.4223C50.8872 33.0368 52.4298 31.3142 53.6471 29.2547C55.2605 26.492 56.0672 23.3511 56.0672 19.832C56.0672 13.5173 53.6975 8.63333 48.958 5.18C44.2185 1.72667 37.4958 0 28.7899 0H1C0.447715 0 0 0.447715 0 1V14.416C0 14.9683 0.447715 15.416 1 15.416L40.0547 15.416C40.607 15.416 41.0547 15.8637 41.0547 16.416V25.2859C41.0547 25.6858 40.8164 26.0473 40.4488 26.2049L17.4487 36.0668C16.6408 36.4132 16.6408 37.5586 17.4487 37.905L40.4488 47.7668C40.8164 47.9245 41.0547 48.286 41.0547 48.6859V57.5827C41.0547 58.135 40.607 58.5827 40.0547 58.5827H1ZM0 49.2887C0 49.8409 0.447715 50.2887 1 50.2887H23.7911C24.8734 50.2887 25.1843 48.8089 24.1937 48.3733L6.18268 40.4531C5.81962 40.2935 5.58522 39.9343 5.58522 39.5377V34.4338C5.58522 34.0373 5.81945 33.6783 6.18233 33.5185L24.1133 25.6253C25.1036 25.1894 24.7925 23.71 23.7104 23.71H0.999998C0.447713 23.71 0 24.1578 0 24.71V49.2887Z" fill="white"/>
<path d="M163.693 23H158.92L146.395 6.99867V23H142.167V1H146.94L159.465 17.016V1H163.693V23Z" stroke="white" stroke-width="0.5"/>
<path fill-rule="evenodd" clip-rule="evenodd" d="M103.109 23H107.802L102.116 14.068C103.622 13.5791 104.785 12.8067 105.608 11.7507C106.43 10.6849 106.841 9.38933 106.841 7.864C106.841 6.42667 106.483 5.19956 105.768 4.18267C105.052 3.156 104.033 2.36889 102.709 1.82133C101.385 1.27378 99.7883 1 97.9197 1H88.3899V4.40267H92.6183H97.6154C99.1743 4.40267 100.381 4.71556 101.235 5.34133C102.089 5.96711 102.516 6.84711 102.516 7.98133C102.516 9.11556 102.084 9.99556 101.219 10.6213C100.365 11.2471 99.1637 11.56 97.6154 11.56H92.6183H88.3899V23H92.6183V14.728H97.8396L103.109 23Z" stroke="white" stroke-width="0.5"/>
<path fill-rule="evenodd" clip-rule="evenodd" d="M112.427 23H116.864L119.058 17.8667L120.452 14.4787L124.344 5.37067L128.236 14.4787L129.629 17.8667L131.823 23H136.26L126.602 1H122.101L112.427 23Z" stroke="white" stroke-width="0.5"/>
<path fill-rule="evenodd" clip-rule="evenodd" d="M171.234 19.5973V23H178.793C181.708 23 184.228 22.5551 186.353 21.6653C188.478 20.7756 190.117 19.5044 191.27 17.852C192.423 16.1996 193 14.2489 193 12C193 9.74133 192.423 7.79067 191.27 6.148C190.117 4.49556 188.478 3.22444 186.353 2.33467C184.228 1.44489 181.708 1 178.793 1H171.234V16.0187H175.462V4.40267H178.954C181.014 4.40267 182.765 4.70089 184.207 5.29733C185.659 5.884 186.764 6.74444 187.522 7.87867C188.291 9.01289 188.676 10.3867 188.676 12C188.676 13.6133 188.291 14.9871 187.522 16.1213C186.764 17.2556 185.659 18.1209 184.207 18.7173C182.765 19.304 181.014 19.5973 178.954 19.5973H175.462H171.234Z" stroke="white" stroke-width="0.5"/>
<path fill-rule="evenodd" clip-rule="evenodd" d="M64 1V23H73.8181C75.4411 23 76.8506 22.7458 78.0465 22.2373C79.253 21.7289 80.1873 21.0151 80.8493 20.096C81.5114 19.1671 81.8424 18.0867 81.8424 16.8547C81.8424 15.5151 81.4473 14.3858 80.6571 13.4667C79.867 12.5476 78.7725 11.912 77.3738 11.56C78.3775 11.1396 79.1783 10.4991 79.7762 9.63867C80.3742 8.76844 80.6732 7.76133 80.6732 6.61733C80.6732 4.85733 79.9738 3.48356 78.575 2.496C77.1869 1.49867 75.2543 1 72.777 1H64ZM72.5528 10.372H71.7217V13.2613H73.0653C73.9836 13.2613 74.7738 13.3884 75.4358 13.6427C76.0978 13.8871 76.6103 14.244 76.9734 14.7133C77.3364 15.1729 77.5179 15.7204 77.5179 16.356C77.5179 17.0111 77.3204 17.5831 76.9253 18.072C76.5409 18.5511 75.9963 18.9276 75.2916 19.2013C74.5869 19.4653 73.754 19.5973 72.7931 19.5973H67.6446V13.2613V10.372V4.40267H72.4567C73.706 4.40267 74.6883 4.66667 75.4037 5.19467C76.1298 5.72267 76.4929 6.44133 76.4929 7.35067C76.4929 8.27956 76.1405 9.01778 75.4358 9.56533C74.731 10.1031 73.7701 10.372 72.5528 10.372Z" stroke="white" stroke-width="0.5"/>
<path d="M164.763 55H160.098V33H164.746V44.6307C165.215 44.0538 165.667 43.516 166.101 43.0173C166.547 42.5089 166.928 42.0884 167.245 41.756L175.607 33H181.116L171.435 43.12L183 55H176.997L168.46 46.244L164.763 50.1307V55Z" fill="white"/>
<path fill-rule="evenodd" clip-rule="evenodd" d="M99.1991 55H104.075L106.487 49.8667L108.018 46.4787L112.296 37.3707L116.573 46.4787L118.105 49.8667L120.516 55H125.392L114.778 33H109.831L99.1991 55Z" fill="white"/>
<path fill-rule="evenodd" clip-rule="evenodd" d="M148.062 55H153.219L146.97 46.068C148.625 45.5791 149.904 44.8067 150.808 43.7507C151.711 42.6849 152.163 41.3893 152.163 39.864C152.163 38.4267 151.77 37.1996 150.984 36.1827C150.197 35.156 149.077 34.3689 147.621 33.8213C146.166 33.2738 144.412 33 142.358 33H131.884V36.4027H136.532H142.024C143.737 36.4027 145.063 36.7156 146.002 37.3413C146.941 37.9671 147.41 38.8471 147.41 39.9813C147.41 41.1156 146.935 41.9956 145.984 42.6213C145.046 43.2471 143.725 43.56 142.024 43.56H136.532H131.884V55H136.532V46.728H142.27L148.062 55Z" fill="white"/>
<path d="M92.6895 55H88.0423V38.5L80.7019 51.304H76.9524L69.6472 38.5733V55H65V33H70.9146L78.836 47.0653L86.7397 33H92.6895V55Z" fill="white"/>
<path d="M86.2807 73C85.8032 73 85.3732 72.9177 84.9905 72.753C84.6112 72.5849 84.2956 72.3484 84.0437 72.0437C83.7952 71.7389 83.6284 71.3781 83.5434 70.9612L83.9554 70.8771C84.083 71.3956 84.3544 71.8054 84.7698 72.1067C85.1851 72.408 85.6888 72.5586 86.2807 72.5586C86.6928 72.5586 87.0525 72.4885 87.36 72.3484C87.6674 72.2083 87.9061 72.0121 88.0762 71.7599C88.2463 71.5042 88.3313 71.2064 88.3313 70.8666C88.3313 70.6109 88.2871 70.3972 88.1988 70.2255C88.1105 70.0539 87.9977 69.9155 87.8603 69.8104C87.7263 69.7018 87.5856 69.616 87.4385 69.5529C87.2913 69.4899 87.1605 69.4408 87.046 69.4058L85.28 68.8383C85.0249 68.7577 84.8041 68.6596 84.6177 68.544C84.4346 68.4284 84.2841 68.2971 84.1664 68.1499C84.0487 68.0028 83.9604 67.8417 83.9015 67.6665C83.8459 67.4914 83.8181 67.3039 83.8181 67.1043C83.8181 66.7189 83.9146 66.3774 84.1075 66.0796C84.3037 65.7783 84.5752 65.5436 84.9219 65.3755C85.2685 65.2038 85.6692 65.118 86.1237 65.118C86.5849 65.118 86.9986 65.2091 87.3649 65.3912C87.7312 65.5734 88.0304 65.8309 88.2626 66.1637C88.4981 66.493 88.6452 66.8801 88.7041 67.325L88.292 67.409C88.2463 67.0412 88.1252 66.7189 87.929 66.4422C87.7328 66.1619 87.4793 65.9447 87.1686 65.7906C86.858 65.6365 86.5097 65.5594 86.1237 65.5594C85.7542 65.5594 85.4288 65.6277 85.1475 65.7643C84.8695 65.9009 84.652 66.0849 84.4951 66.3161C84.3381 66.5473 84.2596 66.8065 84.2596 67.0938C84.2596 67.395 84.3348 67.6367 84.4853 67.8189C84.639 67.9976 84.8254 68.1377 85.0445 68.2393C85.2636 68.3374 85.4729 68.4179 85.6724 68.481L87.1343 68.9539C87.2586 68.9924 87.4107 69.0502 87.5905 69.1273C87.7704 69.2009 87.947 69.3077 88.1203 69.4478C88.2969 69.588 88.4425 69.7736 88.5569 70.0048C88.6747 70.2325 88.7335 70.5198 88.7335 70.8666C88.7335 71.1924 88.6763 71.4867 88.5619 71.7494C88.4474 72.0121 88.2822 72.2363 88.0664 72.422C87.8505 72.6077 87.5922 72.7495 87.2913 72.8476C86.9904 72.9492 86.6536 73 86.2807 73Z" fill="white"/>
<path d="M103.194 72.8424V65.717H100.604V65.2756H106.196V65.717H103.606V72.8424H103.194Z" fill="white"/>
<path d="M121.157 73C120.634 73 120.169 72.8826 119.764 72.6479C119.358 72.4132 119.039 72.0839 118.807 71.6601C118.575 71.2327 118.459 70.7335 118.459 70.1625V65.2756H118.871V70.0153C118.871 70.4813 118.945 70.8789 119.092 71.2082C119.239 71.5339 119.429 71.7984 119.661 72.0016C119.893 72.2013 120.142 72.3484 120.407 72.443C120.671 72.5341 120.922 72.5796 121.157 72.5796C121.393 72.5796 121.643 72.5341 121.908 72.443C122.173 72.3484 122.421 72.2013 122.653 72.0016C122.886 71.7984 123.075 71.5339 123.222 71.2082C123.37 70.8789 123.443 70.4813 123.443 70.0153V65.2756H123.855V70.1625C123.855 70.73 123.739 71.2274 123.507 71.6548C123.275 72.0787 122.956 72.4097 122.55 72.6479C122.145 72.8826 121.68 73 121.157 73Z" fill="white"/>
<path d="M136.712 72.8424V65.2756H138.782C138.867 65.2756 139.003 65.2774 139.19 65.2809C139.376 65.2844 139.554 65.3002 139.724 65.3282C140.244 65.4088 140.674 65.6224 141.014 65.9693C141.358 66.3161 141.613 66.7575 141.78 67.2934C141.947 67.8259 142.03 68.4144 142.03 69.059C142.03 69.7071 141.947 70.2991 141.78 70.8351C141.613 71.3675 141.358 71.8072 141.014 72.154C140.674 72.4973 140.244 72.7092 139.724 72.7898C139.557 72.8143 139.378 72.8301 139.185 72.8371C138.995 72.8406 138.861 72.8424 138.782 72.8424H136.712ZM137.154 72.401H138.782C138.939 72.401 139.096 72.3957 139.253 72.3852C139.414 72.3747 139.548 72.3589 139.656 72.3379C140.12 72.2538 140.493 72.0629 140.774 71.7652C141.059 71.4639 141.265 71.082 141.392 70.6196C141.523 70.1537 141.588 69.6335 141.588 69.059C141.588 68.4845 141.523 67.966 141.392 67.5036C141.265 67.0377 141.059 66.6559 140.774 66.3581C140.493 66.0568 140.12 65.8642 139.656 65.7801C139.548 65.7591 139.412 65.7433 139.248 65.7328C139.085 65.7223 138.93 65.717 138.782 65.717H137.154V72.401Z" fill="white"/>
<path d="M154.69 72.8424V65.2756H155.102V72.8424H154.69Z" fill="white"/>
<path d="M170.831 73C170.128 73 169.541 72.8319 169.07 72.4956C168.602 72.1593 168.251 71.6951 168.015 71.1031C167.78 70.511 167.662 69.8297 167.662 69.059C167.662 68.2883 167.78 67.607 168.015 67.0149C168.251 66.4229 168.602 65.9587 169.07 65.6224C169.541 65.2861 170.128 65.118 170.831 65.118C171.534 65.118 172.12 65.2861 172.587 65.6224C173.058 65.9587 173.411 66.4229 173.647 67.0149C173.882 67.607 174 68.2883 174 69.059C174 69.8297 173.882 70.511 173.647 71.1031C173.411 71.6951 173.058 72.1593 172.587 72.4956C172.12 72.8319 171.534 73 170.831 73ZM170.831 72.5586C171.436 72.5586 171.94 72.4097 172.342 72.112C172.747 71.8107 173.052 71.3973 173.254 70.8719C173.457 70.3464 173.559 69.7421 173.559 69.059C173.559 68.3759 173.457 67.7716 173.254 67.2461C173.052 66.7172 172.747 66.3038 172.342 66.006C171.94 65.7083 171.436 65.5594 170.831 65.5594C170.226 65.5594 169.722 65.7083 169.32 66.006C168.921 66.3038 168.62 66.7172 168.417 67.2461C168.215 67.7716 168.11 68.3759 168.103 69.059C168.097 69.7421 168.195 70.3464 168.398 70.8719C168.601 71.3973 168.905 71.8107 169.31 72.112C169.719 72.4097 170.226 72.5586 170.831 72.5586Z" fill="white"/>
<path d="M67.2664 71.6839L65 69.2563L67.2664 66.8286L67.5411 67.1124L65.5396 69.2563L67.5411 71.4002L67.2664 71.6839Z" fill="white"/>
<path d="M72.1685 65H72.61L70.7262 72.5667H70.2847L72.1685 65Z" fill="white"/>
<path d="M75.636 71.6839L75.3613 71.4002L77.3628 69.2563L75.3613 67.1124L75.636 66.8286L77.9024 69.2563L75.636 71.6839Z" fill="white"/>
</svg>
