<svg width="17" height="16" viewBox="0 0 17 16" fill="none" xmlns="http://www.w3.org/2000/svg">
<path d="M14.8748 10V12.62C14.877 12.8126 14.8348 13.0034 14.7511 13.1792C14.6674 13.355 14.5443 13.5117 14.3901 13.6384C14.2359 13.7651 14.0544 13.8589 13.8581 13.9132C13.6617 13.9676 13.4552 13.9813 13.2527 13.9534C10.4456 13.614 7.83817 12.4052 5.8414 10.5174C3.84462 8.62962 2.57197 6.17021 2.22396 3.52669C2.19437 3.33665 2.20874 3.14285 2.26611 2.95853C2.32347 2.77421 2.42247 2.60373 2.55632 2.45875C2.69018 2.31378 2.85573 2.19774 3.04165 2.11856C3.22758 2.03939 3.42948 1.99895 3.63354 2.00002H6.37479C6.5499 1.99902 6.7192 2.05911 6.85001 2.16868C6.98082 2.27825 7.06387 2.42954 7.08313 2.59335C7.15342 3.46707 7.3935 4.32122 7.79146 5.11335C7.8597 5.26337 7.86711 5.43174 7.81228 5.58655C7.75745 5.74137 7.64419 5.87188 7.49396 5.95335L6.88479 6.28002C6.79699 6.32547 6.72043 6.38794 6.66017 6.4633C6.59992 6.53866 6.55733 6.6252 6.53524 6.71719C6.51315 6.80918 6.51205 6.90454 6.53201 6.99697C6.55197 7.08939 6.59254 7.17678 6.65104 7.25335C7.35182 8.21948 8.23829 9.0538 9.26479 9.71335C9.34615 9.76841 9.439 9.8066 9.5372 9.82539C9.6354 9.84417 9.73672 9.84314 9.83447 9.82234C9.93221 9.80155 10.0242 9.76147 10.1042 9.70476C10.1843 9.64805 10.2507 9.57599 10.299 9.49335L10.646 8.92002C10.7378 8.77678 10.8834 8.67122 11.054 8.62429C11.2245 8.57737 11.4076 8.5925 11.5669 8.66669C12.4085 9.04123 13.3161 9.2672 14.2444 9.33335C14.4184 9.35148 14.5792 9.42964 14.6956 9.55276C14.812 9.67587 14.8759 9.83521 14.8748 10Z" stroke="#DDFC53" stroke-linecap="round" stroke-linejoin="round"/>
</svg>
